PathFileType	4	(X/Y/Z)	Walk1_0-155.trc
DataRate	CameraRate	NumFrames	NumMarkers	Units	OrigDataRate	OrigDataStartFrame	OrigNumFrames
30	30	7	22	m	30	0	155
Frame#	Time	Hip			RHip			RKnee			RAnkle			RBigToe			RSmallToe			RHeel			LHip			LKnee			LAnkle			LBigToe			LSmallToe			LHeel			Neck			Head			Nose			RShoulder			RElbow			RWrist			LShoulder			LElbow			LWrist		
		X1	Y1	Z1	X2	Y2	Z2	X3	Y3	Z3	X4	Y4	Z4	X5	Y5	Z5	X6	Y6	Z6	X7	Y7	Z7	X8	Y8	Z8	X9	Y9	Z9	X10	Y10	Z10	X11	Y11	Z11	X12	Y12	Z12	X13	Y13	Z13	X14	Y14	Z14	X15	Y15	Z15	X16	Y16	Z16	X17	Y17	Z17	X18	Y18	Z18	X19	Y19	Z19	X20	Y20	Z20	X21	Y21	Z21	X22	Y22	Z22
1	0.0333333333333333	-2.5822993919326542	0.8353535442142881	0.390159692569529	-2.564301136381434	0.7995216089271159	0.4743170907913497	-2.5973925944291603	0.45202510050387545	0.5022247997509575	-2.6332328138509684	0.06996646983075273	0.512507903873578	-2.4391904397082955	-0.01758535112991413	0.5466048436006092	-2.448734585722243	-0.020592953071011326	0.610000693847417	-2.6076220230002467	0.0016507667556564672	0.5071943737908818	-2.5775384265861176	0.8021739985057158	0.30540236073767296	-2.5547412107095133	0.4583698115571189	0.28594217981537423	-2.5735192312073556	0.07880943274162674	0.2781950945489238	-2.3863264605371093	-0.004041426266126427	0.270870523709254	-2.4279804610977305	-0.01069706404119533	0.20920473459701303	-2.618248468131236	-0.017233313161404005	0.2968518751379771	-2.5387196943555455	1.5037312103630303	0.3921383112493879	-2.5424663186430823	1.7826804395444245	0.3766856944237567	-2.414308798997453	1.6548172887434176	0.3938649999755601	-2.567501356515817	1.3824219762354686	0.5758668229545402	-2.5678281922688466	1.0987311348598094	0.625212174080791	-2.490660248121455	0.853979383188221	0.609846109597899	-2.570483333882954	1.399032488944061	0.20635524272945802	-2.5465686929067854	1.0950395852668846	0.15263174175322858	-2.4881094664419434	0.8500894193507129	0.16866680979352
2	0.0666666666666666	-2.582120890117003	0.8348340852304748	0.3883708057599692	-2.5631978321454	0.7997362747924365	0.47520083512743044	-2.598611414057009	0.4497626062209407	0.503135727342213	-2.620642653038831	0.07326124426891169	0.5125081791070121	-2.416365818444659	-0.012356532539099999	0.5446519057829685	-2.4420117325054735	-0.014773625062448654	0.6078941904478355	-2.6096365069512486	0.0037527309913009147	0.5061205499321119	-2.578201302528589	0.800841047159135	0.30270985031439235	-2.5522140722298863	0.4578546488821511	0.28515995550364515	-2.5728485824143874	0.0783978847499386	0.27940268685411995	-2.3849823591669623	-0.004506228796362709	0.27136876380008224	-2.4282069844761835	-0.011552781238351463	0.2087746319259348	-2.61825233383846	-0.0161611693899258	0.2969066219995501	-2.5375661920181574	1.5026668454472707	0.39166035576084557	-2.539843332770736	1.7811390330168912	0.3619232290741251	-2.4138428155528096	1.6551444290581778	0.38210392004617083	-2.564996204342431	1.3826950655744303	0.5761573236903496	-2.5657191853567114	1.0975649152323728	0.6248055770610605	-2.489556958605171	0.854073126709548	0.6098103474091585	-2.570676199471433	1.3995746175506876	0.20406399556706822	-2.545993945235478	1.0950649307698184	0.1515466046255321	-2.486631045054116	0.851846885584008	0.16743537951570986
3	0.1	-2.5819506048925804	0.8342769429922723	0.3865889762794073	-2.562514226850724	0.7999201739848626	0.47573662655107085	-2.599806605793563	0.44782593281169186	0.5038294358970894	-2.607192453562581	0.0767753500214981	0.5125614301816774	-2.398075640689016	-0.00788668019273517	0.5429785312590801	-2.4366155973548285	-0.009743772678751508	0.6061444944175072	-2.6142139028378253	0.0044676416511893755	0.5052715553809988	-2.578631402577369	0.7996880394942767	0.30016727890615286	-2.549582621869073	0.45745104743993786	0.2844189740582583	-2.5723303915498303	0.07796350157630585	0.280348235772345	-2.383878477089356	-0.005038539817085153	0.2720997509756549	-2.428370101119065	-0.012314381654028097	0.2085956058359776	-2.6183293636885643	-0.015190789841970259	0.29682190496201305	-2.5363159082067392	1.5017095024030018	0.3909034251262241	-2.537931790887037	1.7800813239487387	0.35214054294107205	-2.413232197799243	1.6553654765978596	0.3715042390635238	-2.5632046727401727	1.3831056993649586	0.5755217413686996	-2.5637349046287214	1.0965705120119538	0.6241915436788923	-2.488533799968279	0.8540783408261754	0.609737920233234	-2.570718607552917	1.3998880740505273	0.2016852266260739	-2.5454904555156803	1.0949692241833973	0.1502820532740486	-2.485306920414281	0.8530242644065555	0.16622275496546965
4	0.1333333333333333	-2.581745329517044	0.8336958694843978	0.3847982076940173	-2.5623729922081013	0.8000737716478925	0.47570055250588905	-2.600873391352058	0.44641994968393783	0.5041856944173991	-2.5937884706364964	0.08030522541289202	0.5127418633988593	-2.386640290981038	-0.004730448145394439	0.5417596139312313	-2.4335613422408766	-0.00609541493578884	0.6049881930894735	-2.6229734513451373	0.002827895117832741	0.5046886160752491	-2.5786868914127377	0.7988452450938466	0.29786491555638706	-2.546872903856525	0.45720589788981103	0.2837284807198606	-2.572055173539676	0.07749513928610317	0.28085785734791774	-2.383129553416368	-0.005621769641840607	0.2730844751243305	-2.42841268492779	-0.012826576220309341	0.2087789517371284	-2.618603751385539	-0.014470757708750242	0.29652889212360883	-2.53493967295719	1.500911675110173	0.38971435280786915	-2.53657673010573	1.7795880209700086	0.3466306168797358	-2.412449505490991	1.655449702176428	0.36278417043506567	-2.562583581608832	1.3837931985567016	0.573130375515033	-2.5618708209211345	1.0958919827439562	0.6232271640676267	-2.4876129579061224	0.854014378060159	0.6095974460025588	-2.5705597853323447	1.3998430425920128	0.19915357285097884	-2.5451545568952265	1.0947004747336553	0.14868808052165775	-2.484301202491059	0.8533387756387034	0.16494051899532203
5	0.1666666666666666	-2.581423970805049	0.8331313487180962	0.38296302455074466	-2.5625291216402917	0.8002230470502454	0.4749851280844984	-2.6016322455965932	0.445634353850024	0.5041747538814345	-2.5826439506627388	0.08331315950114951	0.5130877527913557	-2.381839827534119	-0.0030752262947614795	0.5410812941602514	-2.4332520988756525	-0.004081549097378342	0.6045114956462185	-2.635724743894109	-0.0012433793552309152	0.5042796981328245	-2.5783507206975584	0.7983334073883727	0.2957971183300664	-2.5442206543393784	0.4571347942621048	0.28301662081645984	-2.5720179754481256	0.07698013997401708	0.28089543237192827	-2.3826956048517975	-0.006154004844273525	0.27409866889751205	-2.4282887883073787	-0.012976462995771564	0.2092817586247854	-2.6191469775209866	-0.014099534596784872	0.2960306368759163	-2.5334564074120602	1.5002650071468708	0.38812251471327563	-2.5351365480199526	1.7794536432248547	0.34139916278153887	-2.4115650685192693	1.6554438186879488	0.3559870158070051	-2.563240282041314	1.3849088907306486	0.5684295817696347	-2.5600183495141953	1.0956097356810552	0.6218410953620801	-2.4867461002780624	0.8539598521983224	0.6093481697293933	-2.5702349996103333	1.3994630861662478	0.19643321254864643	-2.5450486724572787	1.0942868664242833	0.14666067319205028	-2.4837168775456346	0.8528512493498516	0.1634311096949987
6	0.2	-2.580872059216518	0.832625204823327	0.3809679267655646	-2.562463547938713	0.8004276068630206	0.47349035801058487	-2.6018221195034097	0.4455237326665307	0.5037704326419075	-2.57529841334557	0.08530444538694675	0.5134896818221565	-2.381927160853167	-0.0028006273817563826	0.540982191339897	-2.4351763275749736	-0.0036146277122791597	0.6046565918929647	-2.6496893007474718	-0.006537224989063455	0.5040347257795975	-2.577691591945945	0.7980892618852291	0.2938191572796228	-2.5417853574666176	0.45725581491025086	0.28207903885254904	-2.572158208580086	0.0763811199822664	0.2805332593166582	-2.382486699326951	-0.006551878881239438	0.27481164250716583	-2.42798794095455	-0.012843465853220439	0.2099515928134359	-2.6199049175700533	-0.014071938286779885	0.2953696074099561	-2.531897829356688	1.4997793562846287	0.3861466882734252	-2.5331890805681945	1.779504825390347	0.33396309296191573	-2.4106122906069913	1.6553977827639648	0.3506123148627031	-2.564878931530205	1.3865765358713258	0.5613552488876354	-2.5580460608659363	1.0957282671595625	0.6199631752700219	-2.4858097607242433	0.8539477062697993	0.6088946460490419	-2.5697882629185593	1.3988979549402962	0.19345630092834776	-2.5451436640314373	1.093809981154847	0.14412039548448471	-2.4835334385624472	0.8518115974849838	0.1615328487674682
7	0.2333333333333333	-2.5799549643521886	0.8322293293813494	0.3786061201675498	-2.5616089876315624	0.8008047135973229	0.4711333705849865	-2.6011127962269383	0.44613516635548833	0.5029248148621059	-2.571733908992548	0.08600297400592391	0.5137064913100954	-2.384698566870721	-0.0036880905966243	0.5413936188294403	-2.4379594648530487	-0.004386418718658906	0.6051993866970097	-2.660535480600816	-0.011063945666548875	0.5040906670579361	-2.5768190329725598	0.7980631121763128	0.2917040853695836	-2.5396953621679113	0.4575715794858969	0.2806427289013508	-2.572431558053275	0.07563686709347676	0.27989830255313	-2.3824489656550516	-0.006833508425075045	0.2749803723821899	-2.427545729406096	-0.012686094224833749	0.2105746175791405	-2.6207732742485037	-0.014357851683649064	0.29462422106332753	-2.530330007362664	1.4995588930668007	0.3835768866266391	-2.530810291552716	1.7797647482258738	0.32531844362948903	-2.4094998028743397	1.6553252671477645	0.3460515652880522	-2.566582781614113	1.3886732577828909	0.5527624371026156	-2.5558610581609	1.0962088088857997	0.6175085779326883	-2.4846416845415766	0.8539400520062876	0.6081029363290319	-2.5692512422024056	1.398334417920482	0.19007992428687195	-2.5453687036712345	1.093350689476688	0.1410236872219783	-2.483634336924832	0.8504850154375032	0.15912838370383825
